<?xml version="1.0" encoding="UTF-8" standalone="no"?>
<!-- Created with Inkscape (http://www.inkscape.org/) -->

<svg
   width="270mm"
   height="160mm"
   viewBox="0 0 270 160"
   version="1.1"
   id="svg240"
   inkscape:version="1.1.2 (0a00cf5339, 2022-02-04)"
   sodipodi:docname="panel.svg"
   xmlns:inkscape="http://www.inkscape.org/namespaces/inkscape"
   xmlns:sodipodi="http://sodipodi.sourceforge.net/DTD/sodipodi-0.dtd"
   xmlns="http://www.w3.org/2000/svg"
   xmlns:svg="http://www.w3.org/2000/svg">
  <sodipodi:namedview
     id="namedview242"
     pagecolor="#ffffff"
     bordercolor="#666666"
     borderopacity="1.0"
     inkscape:pageshadow="2"
     inkscape:pageopacity="0.0"
     inkscape:pagecheckerboard="0"
     inkscape:document-units="mm"
     showgrid="false"
     inkscape:zoom="0.88654349"
     inkscape:cx="782.81551"
     inkscape:cy="365.4643"
     inkscape:window-width="1920"
     inkscape:window-height="1022"
     inkscape:window-x="0"
     inkscape:window-y="0"
     inkscape:window-maximized="1"
     inkscape:current-layer="layer1"
     width="270mm"
     height="160mm" />
  <defs
     id="defs237" />
  <g
     inkscape:label="Layer 1"
     inkscape:groupmode="layer"
     id="layer1">
    <rect
       style="fill:none;stroke:#000000;stroke-width:0.264583"
       id="rect2313"
       width="120.65"
       height="76.199997"
       x="65.16217"
       y="34.873386" />
    <circle
       style="fill:none;stroke:#000000;stroke-width:0.264583"
       id="path2337"
       cx="69.102165"
       cy="31.063389"
       r="1.5" />
    <circle
       style="fill:none;stroke:#000000;stroke-width:0.264583"
       id="path2337-5"
       cx="181.88217"
       cy="31.063389"
       r="1.5" />
    <circle
       style="fill:none;stroke:#000000;stroke-width:0.264583"
       id="path2337-3"
       cx="181.88217"
       cy="114.88338"
       r="1.5" />
    <circle
       style="fill:none;stroke:#000000;stroke-width:0.264583"
       id="path2337-56"
       cx="69.102165"
       cy="114.88338"
       r="1.5" />
    <circle
       style="fill:none;stroke:#000000;stroke-width:0.264583"
       id="path665"
       cx="27.962502"
       cy="131.98535"
       r="8" />
    <circle
       style="fill:none;stroke:#000000;stroke-width:0.264583"
       id="path665-3"
       cx="36.653244"
       cy="80.000702"
       r="8" />
    <g
       aria-label="Open/Close"
       transform="scale(1.0303823,0.97051355)"
       id="text5014"
       style="font-size:7.88315px;line-height:1.25;stroke-width:0.246348;fill:#ff0000;fill-opacity:1">
      <path
         d="m 13.979575,98.333219 q -0.846823,0 -1.347218,0.631268 -0.496546,0.631268 -0.496546,1.720593 0,1.08547 0.496546,1.71674 0.500395,0.63127 1.347218,0.63127 0.846822,0 1.339519,-0.63127 0.496546,-0.63127 0.496546,-1.71674 0,-1.089325 -0.496546,-1.720593 -0.492697,-0.631268 -1.339519,-0.631268 z m 0,-0.631268 q 1.208647,0 1.932295,0.81218 0.723649,0.808331 0.723649,2.170949 0,1.35876 -0.723649,2.17094 -0.723648,0.80833 -1.932295,0.80833 -1.212497,0 -1.939994,-0.80833 -0.723649,-0.80833 -0.723649,-2.17094 0,-1.362618 0.723649,-2.170949 0.727497,-0.81218 1.939994,-0.81218 z"
         id="path117967"
         style="fill:#ff0000;fill-opacity:1" />
      <path
         d="m 18.506227,102.90606 v 2.28642 h -0.712101 v -5.950851 h 0.712101 v 0.654363 q 0.223253,-0.384919 0.561983,-0.569681 0.342578,-0.18861 0.816029,-0.18861 0.785235,0 1.274083,0.623569 0.492697,0.62357 0.492697,1.63976 0,1.01618 -0.492697,1.63975 -0.488848,0.62357 -1.274083,0.62357 -0.473451,0 -0.816029,-0.18476 -0.33873,-0.18861 -0.561983,-0.57353 z m 2.409596,-1.50503 q 0,-0.78139 -0.323333,-1.22405 -0.319483,-0.446503 -0.881465,-0.446503 -0.561982,0 -0.885315,0.446503 -0.319483,0.44266 -0.319483,1.22405 0,0.78138 0.319483,1.22789 0.323333,0.44266 0.885315,0.44266 0.561982,0 0.881465,-0.44266 0.323333,-0.44651 0.323333,-1.22789 z"
         id="path117969"
         style="fill:#ff0000;fill-opacity:1" />
      <path
         d="m 26.512551,101.22011 v 0.34643 h -3.256418 q 0.04619,0.73135 0.438808,1.11627 0.396467,0.38107 1.10087,0.38107 0.408014,0 0.789084,-0.10008 0.38492,-0.10008 0.762141,-0.30024 v 0.66976 q -0.38107,0.16167 -0.781387,0.24635 -0.400316,0.0847 -0.81218,0.0847 -1.031584,0 -1.635907,-0.60047 -0.600475,-0.60048 -0.600475,-1.62436 0,-1.05853 0.569681,-1.67825 0.57353,-0.623569 1.543527,-0.623569 0.869918,0 1.374163,0.561982 0.508093,0.558137 0.508093,1.520427 z m -0.708252,-0.20785 q -0.0077,-0.58123 -0.327181,-0.92766 -0.315634,-0.346425 -0.839124,-0.346425 -0.592776,0 -0.950751,0.334885 -0.354126,0.33487 -0.408015,0.94305 z"
         id="path117971"
         style="fill:#ff0000;fill-opacity:1" />
      <path
         d="m 31.258607,100.95067 v 2.60206 h -0.708252 v -2.57896 q 0,-0.61203 -0.23865,-0.91611 -0.23865,-0.304088 -0.71595,-0.304088 -0.57353,0 -0.90456,0.365678 -0.331031,0.36567 -0.331031,0.99694 v 2.43654 h -0.712101 v -4.311101 h 0.712101 v 0.66976 q 0.254047,-0.388769 0.596625,-0.581228 0.346427,-0.19246 0.796783,-0.19246 0.742895,0 1.123965,0.461903 0.38107,0.458056 0.38107,1.351066 z"
         id="path117973"
         style="fill:#ff0000;fill-opacity:1" />
      <path
         d="m 33.92995,97.80588 h 0.654363 l -2.001581,6.47819 h -0.654363 z"
         id="path117975"
         style="fill:#ff0000;fill-opacity:1" />
      <path
         d="m 39.661399,98.248537 v 0.819878 q -0.392618,-0.365673 -0.839124,-0.546585 -0.442658,-0.180912 -0.943053,-0.180912 -0.985394,0 -1.508884,0.604323 -0.523491,0.600474 -0.523491,1.739839 0,1.13551 0.523491,1.73983 0.52349,0.60048 1.508884,0.60048 0.500395,0 0.943053,-0.18092 0.446506,-0.18091 0.839124,-0.54658 v 0.81218 q -0.408015,0.27714 -0.866069,0.41571 -0.454205,0.13857 -0.962298,0.13857 -1.304877,0 -2.05547,-0.79678 -0.750593,-0.80063 -0.750593,-2.18249 0,-1.385713 0.750593,-2.182496 0.750593,-0.800633 2.05547,-0.800633 0.515792,0 0.969997,0.138571 0.458054,0.134722 0.85837,0.408015 z"
         id="path117977"
         style="fill:#ff0000;fill-opacity:1" />
      <path
         d="m 40.831555,97.56338 h 0.708252 v 5.98935 h -0.708252 z"
         id="path117979"
         style="fill:#ff0000;fill-opacity:1" />
      <path
         d="m 44.692296,99.738175 q -0.56968,0 -0.900711,0.446505 -0.331031,0.44266 -0.331031,1.21635 0,0.77369 0.327182,1.22019 0.33103,0.44266 0.90456,0.44266 0.565832,0 0.896863,-0.44651 0.33103,-0.4465 0.33103,-1.21634 0,-0.76599 -0.33103,-1.2125 -0.331031,-0.450355 -0.896863,-0.450355 z m 0,-0.600474 q 0.923807,0 1.451147,0.600474 0.527339,0.600475 0.527339,1.662855 0,1.05853 -0.527339,1.66285 -0.52734,0.60047 -1.451147,0.60047 -0.927655,0 -1.454995,-0.60047 -0.523491,-0.60432 -0.523491,-1.66285 0,-1.06238 0.523491,-1.662855 0.52734,-0.600474 1.454995,-0.600474 z"
         id="path117981"
         style="fill:#ff0000;fill-opacity:1" />
      <path
         d="m 50.593113,99.368652 v 0.669758 q -0.300237,-0.153966 -0.62357,-0.230949 -0.323332,-0.07698 -0.66976,-0.07698 -0.527339,0 -0.792934,0.161666 -0.261745,0.161667 -0.261745,0.484997 0,0.24635 0.188611,0.38877 0.18861,0.13857 0.758291,0.26559 l 0.242499,0.0539 q 0.754442,0.16167 1.070076,0.45806 0.319483,0.29254 0.319483,0.81988 0,0.60047 -0.4773,0.95075 -0.473451,0.35027 -1.304877,0.35027 -0.346427,0 -0.723648,-0.0693 -0.373372,-0.0654 -0.789085,-0.20016 v -0.73135 q 0.392618,0.20401 0.773688,0.30794 0.38107,0.10008 0.754442,0.10008 0.500395,0 0.769839,-0.16937 0.269444,-0.17321 0.269444,-0.485 0,-0.28869 -0.196309,-0.44265 -0.19246,-0.15397 -0.850672,-0.29639 l -0.246349,-0.0577 q -0.658212,-0.13857 -0.950751,-0.42341 -0.292538,-0.28869 -0.292538,-0.78909 0,-0.608168 0.431109,-0.939198 0.43111,-0.331031 1.224044,-0.331031 0.392618,0 0.739045,0.05774 0.346428,0.05774 0.638967,0.173213 z"
         id="path117983"
         style="fill:#ff0000;fill-opacity:1" />
      <path
         d="m 55.639406,101.22011 v 0.34643 h -3.256418 q 0.04619,0.73135 0.438808,1.11627 0.396467,0.38107 1.100869,0.38107 0.408015,0 0.789085,-0.10008 0.38492,-0.10008 0.762141,-0.30024 v 0.66976 q -0.38107,0.16167 -0.781387,0.24635 -0.400316,0.0847 -0.81218,0.0847 -1.031584,0 -1.635907,-0.60047 -0.600475,-0.60048 -0.600475,-1.62436 0,-1.05853 0.569681,-1.67825 0.57353,-0.623569 1.543527,-0.623569 0.869918,0 1.374162,0.561982 0.508094,0.558137 0.508094,1.520427 z m -0.708252,-0.20785 q -0.0077,-0.58123 -0.327181,-0.92766 -0.315634,-0.346425 -0.839125,-0.346425 -0.592775,0 -0.950751,0.334885 -0.354125,0.33487 -0.408014,0.94305 z"
         id="path117985"
         style="fill:#ff0000;fill-opacity:1" />
    </g>
    <g
       aria-label="Adjust"
       id="text5014-9"
       style="font-size:9.87778px;line-height:1.25;stroke-width:0.264583;fill:#ff0000;fill-opacity:1">
      <path
         d="m 22.747223,25.087204 -1.321539,3.583589 h 2.647901 z M 22.197386,24.1274 h 1.104498 l 2.744363,7.200941 H 25.033389 L 24.377443,29.48108 h -3.24597 l -0.655946,1.847261 h -1.027328 z"
         id="path117917"
         style="fill:#ff0000;fill-opacity:1" />
      <path
         d="m 30.440123,26.746363 v -2.92282 h 0.887457 v 7.504798 h -0.887457 v -0.810287 q -0.279742,0.482313 -0.709001,0.718647 -0.424435,0.23151 -1.022504,0.23151 -0.979096,0 -1.596458,-0.781347 -0.612538,-0.781348 -0.612538,-2.054656 0,-1.273307 0.612538,-2.054655 0.617362,-0.781348 1.596458,-0.781348 0.598069,0 1.022504,0.236334 0.429259,0.23151 0.709001,0.713824 z m -3.024105,1.885845 q 0,0.979097 0.40032,1.53858 0.405143,0.554661 1.109321,0.554661 0.704178,0 1.109321,-0.554661 0.405143,-0.559483 0.405143,-1.53858 0,-0.979096 -0.405143,-1.533757 -0.405143,-0.559483 -1.109321,-0.559483 -0.704178,0 -1.109321,0.559483 -0.40032,0.554661 -0.40032,1.533757 z"
         id="path117919"
         style="fill:#ff0000;fill-opacity:1" />
      <path
         d="m 33.155549,25.92643 h 0.887457 v 5.498373 q 0,1.032151 -0.395497,1.495172 -0.390674,0.463021 -1.263662,0.463021 h -0.337619 v -0.752409 h 0.236333 q 0.50643,0 0.689709,-0.236334 0.183279,-0.23151 0.183279,-0.96945 z m 0,-2.102887 h 0.887457 v 1.12379 h -0.887457 z"
         id="path117921"
         style="fill:#ff0000;fill-opacity:1" />
      <path
         d="M 35.808273,29.196515 V 25.92643 h 0.887457 v 3.236323 q 0,0.766878 0.299034,1.152729 0.299034,0.381028 0.897103,0.381028 0.718647,0 1.133437,-0.458198 0.419613,-0.458198 0.419613,-1.249192 v -3.06269 h 0.887456 v 5.401911 h -0.887456 v -0.82958 q -0.32315,0.49196 -0.752409,0.733117 -0.424436,0.236333 -0.988743,0.236333 -0.930865,0 -1.413179,-0.578776 -0.482313,-0.578776 -0.482313,-1.69292 z m 2.233111,-3.40031 z"
         id="path117923"
         style="fill:#ff0000;fill-opacity:1" />
      <path
         d="m 45.60406,26.085593 v 0.839226 q -0.376204,-0.192926 -0.781348,-0.289389 -0.405143,-0.09646 -0.839225,-0.09646 -0.66077,0 -0.993566,0.202571 -0.327973,0.202572 -0.327973,0.607715 0,0.308681 0.236334,0.487137 0.236333,0.173633 0.950157,0.332796 l 0.303858,0.06752 q 0.945334,0.202572 1.340831,0.573953 0.40032,0.366558 0.40032,1.027328 0,0.752409 -0.598068,1.191314 -0.593246,0.438905 -1.635043,0.438905 -0.434082,0 -0.906749,-0.08682 -0.467845,-0.08199 -0.988743,-0.250803 v -0.916396 q 0.49196,0.255627 0.96945,0.385851 0.47749,0.125402 0.945334,0.125402 0.627008,0 0.964627,-0.212218 0.33762,-0.217041 0.33762,-0.607715 0,-0.361735 -0.24598,-0.554661 -0.241157,-0.192925 -1.065913,-0.371381 l -0.308681,-0.07235 q -0.824756,-0.173633 -1.191314,-0.530545 -0.366558,-0.361735 -0.366558,-0.988743 0,-0.762055 0.540191,-1.176844 0.540191,-0.41479 1.533757,-0.41479 0.49196,0 0.926042,0.07235 0.434082,0.07235 0.80064,0.217041 z"
         id="path117925"
         style="fill:#ff0000;fill-opacity:1" />
      <path
         d="m 48.184437,24.392673 v 1.533757 h 1.827968 v 0.689708 h -1.827968 v 2.932466 q 0,0.660769 0.178456,0.848872 0.183279,0.188102 0.737939,0.188102 h 0.911573 v 0.742763 h -0.911573 q -1.027328,0 -1.418001,-0.381028 -0.390674,-0.385851 -0.390674,-1.398709 V 26.616138 H 46.641033 V 25.92643 h 0.651124 v -1.533757 z"
         id="path117927"
         style="fill:#ff0000;fill-opacity:1" />
    </g>
    <circle
       style="fill:none;stroke:#000000;stroke-width:0.264583"
       id="path1952"
       cx="227.46059"
       cy="130.82848"
       r="13" />
    <circle
       style="fill:none;stroke:#000000;stroke-width:0.264583"
       id="path1954"
       cx="212.2206"
       cy="115.58848"
       r="1.5" />
    <circle
       style="fill:none;stroke:#000000;stroke-width:0.264583"
       id="path1954-3"
       cx="242.70059"
       cy="115.58848"
       r="1.5" />
    <circle
       style="fill:none;stroke:#000000;stroke-width:0.264583"
       id="path1954-6"
       cx="242.70059"
       cy="146.06848"
       r="1.5" />
    <circle
       style="fill:none;stroke:#000000;stroke-width:0.264583"
       id="path1954-7"
       cx="212.2206"
       cy="146.06848"
       r="1.5" />
    <circle
       style="fill:none;stroke:#000000;stroke-width:0.264583"
       id="path1892"
       cx="160.25565"
       r="6"
       cy="127.71452" />
    <circle
       style="fill:none;stroke:#000000;stroke-width:0.264583"
       id="path1892-5"
       cx="97.006401"
       r="6"
       cy="128.15761" />
    <g
       aria-label="Launch"
       id="text15792"
       style="font-size:9.87778px;line-height:1.25;stroke-width:0.264583;fill:#ff0000;fill-opacity:1">
      <path
         d="m 112.18722,133.60588 h 0.97428 v 6.38101 h 3.50642 v 0.81993 h -4.4807 z"
         id="path118007"
         style="fill:#ff0000;fill-opacity:1" />
      <path
         d="m 120.10681,138.0914 q -1.07556,0 -1.49035,0.24598 -0.41479,0.24598 -0.41479,0.83922 0,0.47267 0.30868,0.75241 0.31351,0.27492 0.84887,0.27492 0.73794,0 1.18167,-0.5209 0.44855,-0.52572 0.44855,-1.39388 v -0.19775 z m 1.77009,-0.36656 v 3.08198 h -0.88746 v -0.81993 q -0.30385,0.49196 -0.75723,0.72829 -0.45337,0.23151 -1.10932,0.23151 -0.82958,0 -1.32154,-0.46302 -0.48713,-0.46784 -0.48713,-1.24919 0,-0.91157 0.60771,-1.37459 0.61254,-0.46302 1.82315,-0.46302 h 1.24436 v -0.0868 q 0,-0.61254 -0.40514,-0.94533 -0.40032,-0.33762 -1.12861,-0.33762 -0.46302,0 -0.90193,0.11093 -0.4389,0.11093 -0.84405,0.3328 v -0.81994 q 0.48714,-0.1881 0.94534,-0.27974 0.45819,-0.0965 0.89228,-0.0965 1.17202,0 1.7508,0.60771 0.57877,0.60772 0.57877,1.84244 z"
         id="path118009"
         style="fill:#ff0000;fill-opacity:1" />
      <path
         d="m 123.61323,138.675 v -3.27009 h 0.88746 v 3.23633 q 0,0.76687 0.29903,1.15273 0.29903,0.38102 0.8971,0.38102 0.71865,0 1.13344,-0.45819 0.41961,-0.4582 0.41961,-1.2492 v -3.06269 h 0.88746 v 5.40191 h -0.88746 v -0.82958 q -0.32315,0.49196 -0.75241,0.73312 -0.42443,0.23633 -0.98874,0.23633 -0.93086,0 -1.41318,-0.57877 -0.48231,-0.57878 -0.48231,-1.69292 z m 2.23311,-3.40031 z"
         id="path118011"
         style="fill:#ff0000;fill-opacity:1" />
      <path
         d="m 134.45564,137.54638 v 3.26044 h -0.88746 v -3.2315 q 0,-0.76687 -0.29903,-1.1479 -0.29904,-0.38103 -0.89711,-0.38103 -0.71864,0 -1.13343,0.4582 -0.41479,0.4582 -0.41479,1.24919 v 3.05304 h -0.89228 v -5.40191 h 0.89228 v 0.83923 q 0.31832,-0.48714 0.74758,-0.7283 0.43408,-0.24115 0.99839,-0.24115 0.93087,0 1.40836,0.57877 0.47749,0.57396 0.47749,1.69292 z"
         id="path118013"
         style="fill:#ff0000;fill-opacity:1" />
      <path
         d="m 140.11317,135.61231 v 0.82958 q -0.3762,-0.2074 -0.75723,-0.30868 -0.3762,-0.10611 -0.76205,-0.10611 -0.86334,0 -1.34083,0.54983 -0.47749,0.54502 -0.47749,1.53376 0,0.98874 0.47749,1.53858 0.47749,0.54502 1.34083,0.54502 0.38585,0 0.76205,-0.10129 0.38103,-0.10611 0.75723,-0.3135 v 0.81993 q -0.37138,0.17363 -0.7717,0.26045 -0.39549,0.0868 -0.84405,0.0868 -1.22025,0 -1.9389,-0.76687 -0.71864,-0.76688 -0.71864,-2.06913 0,-1.32154 0.72347,-2.07877 0.72829,-0.75723 1.99195,-0.75723 0.40997,0 0.80064,0.0868 0.39068,0.082 0.75723,0.25081 z"
         id="path118015"
         style="fill:#ff0000;fill-opacity:1" />
      <path
         d="m 146.14692,137.54638 v 3.26044 h -0.88746 v -3.2315 q 0,-0.76687 -0.29904,-1.1479 -0.29903,-0.38103 -0.8971,-0.38103 -0.71865,0 -1.13344,0.4582 -0.41479,0.4582 -0.41479,1.24919 v 3.05304 h -0.89228 v -7.50479 h 0.89228 v 2.94211 q 0.31833,-0.48714 0.74759,-0.7283 0.43408,-0.24115 0.99839,-0.24115 0.93086,0 1.40835,0.57877 0.4775,0.57396 0.4775,1.69292 z"
         id="path118017"
         style="fill:#ff0000;fill-opacity:1" />
    </g>
    <circle
       style="fill:none;stroke:#000000;stroke-width:0.264583"
       id="path1138"
       cx="36.672928"
       cy="51.968811"
       r="3.75" />
    <circle
       style="fill:none;stroke:#000000;stroke-width:0.264583"
       id="path1140"
       cx="28.872932"
       cy="51.968811"
       r="1.5" />
    <circle
       style="fill:none;stroke:#000000;stroke-width:0.264583"
       id="path665-6"
       cx="211.49268"
       cy="72.958206"
       r="8" />
    <circle
       style="fill:none;stroke:#000000;stroke-width:0.264583"
       id="path665-7"
       cx="211.58487"
       cy="45.598541"
       r="8" />
    <g
       aria-label="Action 1"
       id="text17621"
       style="font-size:9.87778px;line-height:1.25;stroke-width:0.264583;fill:#ff0000;fill-opacity:1">
      <path
         d="m 206.87166,22.890902 -1.32154,3.583589 h 2.6479 z m -0.54983,-0.959804 h 1.10449 l 2.74437,7.20094 h -1.01286 l -0.65595,-1.84726 h -3.24597 l -0.65594,1.84726 h -1.02733 z"
         id="path118039"
         style="fill:#ff0000;fill-opacity:1" />
      <path
         d="m 214.89736,23.937522 v 0.829579 q -0.37621,-0.207395 -0.75723,-0.30868 -0.37621,-0.106109 -0.76206,-0.106109 -0.86334,0 -1.34083,0.549837 -0.47749,0.545014 -0.47749,1.533757 0,0.988742 0.47749,1.53858 0.47749,0.545014 1.34083,0.545014 0.38585,0 0.76206,-0.101286 0.38102,-0.106109 0.75723,-0.313504 v 0.819933 q -0.37138,0.173633 -0.7717,0.26045 -0.3955,0.08682 -0.84405,0.08682 -1.22025,0 -1.9389,-0.766878 -0.71865,-0.766879 -0.71865,-2.069125 0,-1.321539 0.72347,-2.078771 0.72829,-0.757232 1.99196,-0.757232 0.40996,0 0.80064,0.08682 0.39067,0.08199 0.75723,0.250803 z"
         id="path118041"
         style="fill:#ff0000;fill-opacity:1" />
      <path
         d="m 217.31857,22.19637 v 1.533757 h 1.82797 v 0.689708 h -1.82797 v 2.932466 q 0,0.66077 0.17846,0.848872 0.18328,0.188102 0.73794,0.188102 h 0.91157 v 0.742763 h -0.91157 q -1.02733,0 -1.418,-0.381028 -0.39068,-0.38585 -0.39068,-1.398709 v -2.932466 h -0.65112 v -0.689708 h 0.65112 V 22.19637 Z"
         id="path118043"
         style="fill:#ff0000;fill-opacity:1" />
      <path
         d="m 220.31374,23.730127 h 0.88746 v 5.401911 h -0.88746 z m 0,-2.102887 h 0.88746 v 1.123791 h -0.88746 z"
         id="path118045"
         style="fill:#ff0000;fill-opacity:1" />
      <path
         d="m 225.15134,24.352312 q -0.71382,0 -1.12861,0.559483 -0.41479,0.554661 -0.41479,1.524111 0,0.96945 0.40997,1.528934 0.41479,0.55466 1.13343,0.55466 0.709,0 1.12379,-0.559484 0.41479,-0.559483 0.41479,-1.52411 0,-0.959804 -0.41479,-1.519288 -0.41479,-0.564306 -1.12379,-0.564306 z m 0,-0.752409 q 1.15756,0 1.81832,0.752409 0.66077,0.752409 0.66077,2.083594 0,1.326362 -0.66077,2.083594 -0.66076,0.752409 -1.81832,0.752409 -1.16237,0 -1.82314,-0.752409 -0.65595,-0.757232 -0.65595,-2.083594 0,-1.331185 0.65595,-2.083594 0.66077,-0.752409 1.82314,-0.752409 z"
         id="path118047"
         style="fill:#ff0000;fill-opacity:1" />
      <path
         d="m 233.59183,25.871599 v 3.260439 h -0.88746 v -3.2315 q 0,-0.766879 -0.29903,-1.147906 -0.29904,-0.381028 -0.89711,-0.381028 -0.71864,0 -1.13343,0.458198 -0.41479,0.458198 -0.41479,1.249192 v 3.053044 h -0.89228 v -5.401911 h 0.89228 v 0.839226 q 0.31833,-0.487137 0.74758,-0.728294 0.43409,-0.241156 0.99839,-0.241156 0.93087,0 1.40836,0.578776 0.47749,0.573953 0.47749,1.69292 z"
         id="path118049"
         style="fill:#ff0000;fill-opacity:1" />
      <path
         d="m 238.79599,28.312105 h 1.59164 v -5.49355 l -1.73151,0.347265 v -0.887456 l 1.72186,-0.347266 h 0.97427 v 6.381007 h 1.59164 v 0.819933 h -4.1479 z"
         id="path118051"
         style="fill:#ff0000;fill-opacity:1" />
    </g>
    <g
       aria-label="Action 2"
       id="text17621-6"
       style="font-size:9.87778px;line-height:1.25;stroke-width:0.264583;fill:#ff0000;fill-opacity:1">
      <path
         d="m 206.33939,89.335211 -1.32154,3.583589 h 2.6479 z m -0.54984,-0.959804 h 1.1045 l 2.74436,7.20094 h -1.01285 l -0.65595,-1.84726 h -3.24597 l -0.65595,1.84726 h -1.02732 z"
         id="path118073"
         style="fill:#ff0000;fill-opacity:1" />
      <path
         d="m 214.36509,90.381831 v 0.829579 q -0.37621,-0.207394 -0.75724,-0.30868 -0.3762,-0.106109 -0.76205,-0.106109 -0.86334,0 -1.34083,0.549837 -0.47749,0.545014 -0.47749,1.533757 0,0.988743 0.47749,1.53858 0.47749,0.545014 1.34083,0.545014 0.38585,0 0.76205,-0.101286 0.38103,-0.106109 0.75724,-0.313503 v 0.819933 q -0.37138,0.173632 -0.77171,0.260449 -0.39549,0.08682 -0.84404,0.08682 -1.22026,0 -1.9389,-0.766878 -0.71865,-0.766879 -0.71865,-2.069125 0,-1.321539 0.72347,-2.078771 0.72829,-0.757232 1.99195,-0.757232 0.40997,0 0.80064,0.08682 0.39068,0.08199 0.75724,0.250803 z"
         id="path118075"
         style="fill:#ff0000;fill-opacity:1" />
      <path
         d="m 216.7863,88.64068 v 1.533756 h 1.82797 v 0.689709 h -1.82797 v 2.932466 q 0,0.660769 0.17846,0.848871 0.18328,0.188103 0.73794,0.188103 h 0.91157 v 0.742762 h -0.91157 q -1.02733,0 -1.41801,-0.381027 -0.39067,-0.385851 -0.39067,-1.398709 v -2.932466 h -0.65112 v -0.689709 h 0.65112 V 88.64068 Z"
         id="path118077"
         style="fill:#ff0000;fill-opacity:1" />
      <path
         d="m 219.78147,90.174436 h 0.88745 v 5.401911 h -0.88745 z m 0,-2.102886 h 0.88745 v 1.12379 h -0.88745 z"
         id="path118079"
         style="fill:#ff0000;fill-opacity:1" />
      <path
         d="m 224.61907,90.796621 q -0.71382,0 -1.12861,0.559483 -0.41479,0.554661 -0.41479,1.524111 0,0.96945 0.40996,1.528934 0.41479,0.55466 1.13344,0.55466 0.709,0 1.12379,-0.559483 0.41479,-0.559484 0.41479,-1.524111 0,-0.959804 -0.41479,-1.519287 -0.41479,-0.564307 -1.12379,-0.564307 z m 0,-0.752409 q 1.15755,0 1.81832,0.752409 0.66077,0.752409 0.66077,2.083594 0,1.326362 -0.66077,2.083594 -0.66077,0.752409 -1.81832,0.752409 -1.16238,0 -1.82314,-0.752409 -0.65595,-0.757232 -0.65595,-2.083594 0,-1.331185 0.65595,-2.083594 0.66076,-0.752409 1.82314,-0.752409 z"
         id="path118081"
         style="fill:#ff0000;fill-opacity:1" />
      <path
         d="m 233.05956,92.315908 v 3.260439 h -0.88746 v -3.2315 q 0,-0.766878 -0.29903,-1.147906 -0.29904,-0.381028 -0.89711,-0.381028 -0.71864,0 -1.13343,0.458198 -0.41479,0.458198 -0.41479,1.249192 v 3.053044 h -0.89228 v -5.401911 h 0.89228 v 0.839226 q 0.31832,-0.487137 0.74758,-0.728293 0.43408,-0.241157 0.99839,-0.241157 0.93087,0 1.40836,0.578776 0.47749,0.573953 0.47749,1.69292 z"
         id="path118083"
         style="fill:#ff0000;fill-opacity:1" />
      <path
         d="m 238.93413,94.756414 h 3.40031 v 0.819933 h -4.57233 v -0.819933 q 0.55466,-0.573953 1.50964,-1.53858 0.95981,-0.96945 1.20579,-1.249191 0.46784,-0.525722 0.65112,-0.887457 0.1881,-0.366558 0.1881,-0.718647 0,-0.573953 -0.40514,-0.935688 -0.40032,-0.361736 -1.04662,-0.361736 -0.4582,0 -0.96945,0.159164 -0.50643,0.159163 -1.08521,0.482313 v -0.983919 q 0.58843,-0.236334 1.09968,-0.356912 0.51125,-0.120578 0.93569,-0.120578 1.11896,0 1.78456,0.559483 0.66559,0.559484 0.66559,1.495172 0,0.443728 -0.16881,0.844049 -0.16399,0.395497 -0.60289,0.935688 -0.12058,0.139871 -0.76688,0.810286 -0.6463,0.665593 -1.82315,1.866553 z"
         id="path118085"
         style="fill:#ff0000;fill-opacity:1" />
    </g>
    <path
       id="path113892"
       style="fill:#ff0000;fill-opacity:1;stroke-width:0.18628"
       d="M 476.84375 22.802734 C 464.0857 22.890003 453.76953 34.087901 453.76953 47.886719 C 453.76953 55.881202 457.23217 63.000936 462.62695 67.59375 C 466.60955 70.984285 464.12465 77.336458 458.80273 77.388672 C 458.75133 77.389107 458.69984 77.390625 458.64844 77.390625 C 452.67202 77.390625 447.62305 73.974794 447.62305 69.931641 C 447.62305 67.536928 445.60408 65.5949 443.11133 65.591797 C 440.5781 65.588717 438.55573 67.670653 438.58789 70.103516 C 438.6461 74.483296 440.92261 78.692656 444.85547 81.677734 C 448.58564 84.509107 453.48405 86.070313 458.64844 86.070312 C 462.09654 86.070312 465.42452 85.371099 468.36719 84.066406 C 467.54582 84.968205 466.29663 86.00808 464.51367 87.0625 C 460.92048 89.187037 456.45552 90.560547 453.13672 90.560547 C 450.63044 90.560547 448.59973 92.52068 448.61719 94.931641 C 448.63609 97.329637 450.72962 99.250821 453.22656 99.240234 C 458.23145 99.218691 464.21418 97.43182 469.25195 94.453125 C 469.33624 94.403462 469.4188 94.352964 469.50195 94.302734 C 468.66505 100.30192 464.78791 103.82156 458.76758 103.86719 C 456.2678 103.88609 454.12648 105.8141 454.13086 108.21484 C 454.13842 110.60809 456.15569 112.54687 458.64844 112.54688 C 464.21579 112.54688 469.26921 110.58772 472.87695 107.03125 C 474.64154 105.29171 476.02016 103.22686 476.99414 100.89258 C 477.96816 103.22686 479.34682 105.29171 481.11133 107.03125 C 484.69424 110.56344 489.70448 112.52021 495.22656 112.54688 C 497.72426 112.55896 499.83069 110.65655 499.85938 108.25781 C 499.88582 105.83774 497.85293 103.86719 495.33984 103.86719 C 489.25167 103.86719 485.3286 100.34136 484.48633 94.302734 C 484.56948 94.352738 484.65167 94.403349 484.73633 94.453125 C 489.77414 97.431824 495.75641 99.216742 500.76172 99.238281 C 503.25866 99.249242 505.35363 97.327865 505.37109 94.929688 C 505.38999 92.518731 503.35976 90.560547 500.85352 90.560547 C 497.53467 90.560547 493.06777 89.187029 489.47461 87.0625 C 487.69166 86.008257 486.4446 84.968576 485.62305 84.066406 C 488.56533 85.371284 491.89152 86.068359 495.33984 86.068359 C 500.50438 86.068359 505.4028 84.509107 509.13281 81.677734 C 513.06583 78.692648 515.34433 74.483107 515.40234 70.103516 C 515.43258 67.671197 513.41195 65.588698 510.87891 65.591797 C 508.38616 65.594877 506.36523 67.536747 506.36523 69.931641 C 506.36523 73.974794 501.31622 77.390625 495.33984 77.390625 C 495.28844 77.390625 495.23657 77.389371 495.18555 77.388672 C 489.86359 77.336288 487.37873 70.984285 491.36133 67.59375 C 496.75607 63.001121 500.2207 55.881387 500.2207 47.886719 C 500.2207 34.033791 489.82133 22.802734 476.99414 22.802734 C 476.94403 22.802734 476.89378 22.802392 476.84375 22.802734 z M 483.23047 58.087891 C 484.49873 58.087891 485.5293 59.078892 485.5293 60.296875 C 485.5293 61.515043 484.49873 62.505859 483.23047 62.505859 C 481.96206 62.505859 480.92969 61.514862 480.92969 60.296875 C 480.92969 59.078892 481.96229 58.087891 483.23047 58.087891 z M 470.69922 58.089844 C 470.71892 58.089364 470.738 58.089844 470.75781 58.089844 C 472.02626 58.089844 473.05859 59.078896 473.05859 60.296875 C 473.05859 61.514862 472.02626 62.507813 470.75781 62.507812 C 469.48959 62.507812 468.45898 61.514862 468.45898 60.296875 C 468.45898 59.097927 469.45831 58.120086 470.69922 58.089844 z "
       transform="scale(0.26458333)" />
    <rect
       style="fill:none;fill-opacity:1;stroke:#000000;stroke-width:0.264583"
       id="rect118484"
       width="267.95059"
       height="158.15268"
       x="1.2265856"
       y="1.1349838" />
    <circle
       style="fill:none;stroke:#000000;stroke-width:0.264583"
       id="path89"
       cx="13.132292"
       cy="11.132292"
       r="4" />
    <circle
       style="fill:none;stroke:#000000;stroke-width:0.264583"
       id="path89-3"
       cx="257.13229"
       cy="11.132292"
       r="4" />
    <circle
       style="fill:none;stroke:#000000;stroke-width:0.264583"
       id="path89-6"
       cx="13.132292"
       cy="149.13229"
       r="4" />
    <circle
       style="fill:none;stroke:#000000;stroke-width:0.264583"
       id="path89-3-7"
       cx="257.13229"
       cy="149.13229"
       r="4" />
  </g>
</svg>
