<?xml version="1.0" encoding="UTF-8" standalone="no"?>
<!-- Created with Inkscape (http://www.inkscape.org/) -->

<svg
   width="270mm"
   height="160mm"
   viewBox="0 0 270 160"
   version="1.1"
   id="svg240"
   inkscape:version="1.1.2 (0a00cf5339, 2022-02-04)"
   sodipodi:docname="panel.svg"
   xmlns:inkscape="http://www.inkscape.org/namespaces/inkscape"
   xmlns:sodipodi="http://sodipodi.sourceforge.net/DTD/sodipodi-0.dtd"
   xmlns="http://www.w3.org/2000/svg"
   xmlns:svg="http://www.w3.org/2000/svg">
  <sodipodi:namedview
     id="namedview242"
     pagecolor="#ffffff"
     bordercolor="#666666"
     borderopacity="1.0"
     inkscape:pageshadow="2"
     inkscape:pageopacity="0.0"
     inkscape:pagecheckerboard="0"
     inkscape:document-units="mm"
     showgrid="false"
     inkscape:zoom="1.0328746"
     inkscape:cx="721.28798"
     inkscape:cy="342.73281"
     inkscape:window-width="1920"
     inkscape:window-height="1022"
     inkscape:window-x="0"
     inkscape:window-y="0"
     inkscape:window-maximized="1"
     inkscape:current-layer="layer1"
     width="270mm"
     height="160mm" />
  <defs
     id="defs237" />
  <g
     inkscape:label="Layer 1"
     inkscape:groupmode="layer"
     id="layer1">
    <rect
       style="fill:#ffffff;stroke:#000000;stroke-width:0.264583"
       id="rect2313"
       width="120.65"
       height="76.199997"
       x="65.16217"
       y="34.873386" />
    <circle
       style="fill:#ffffff;stroke:#000000;stroke-width:0.264583"
       id="path2337"
       cx="69.102165"
       cy="31.063389"
       r="1.5" />
    <circle
       style="fill:#ffffff;stroke:#000000;stroke-width:0.264583"
       id="path2337-5"
       cx="181.88217"
       cy="31.063389"
       r="1.5" />
    <circle
       style="fill:#ffffff;stroke:#000000;stroke-width:0.264583"
       id="path2337-3"
       cx="181.88217"
       cy="114.88338"
       r="1.5" />
    <circle
       style="fill:#ffffff;stroke:#000000;stroke-width:0.264583"
       id="path2337-56"
       cx="69.102165"
       cy="114.88338"
       r="1.5" />
    <circle
       style="fill:#ffffff;stroke:#000000;stroke-width:0.264583"
       id="path665"
       cx="27.962502"
       cy="131.98535"
       r="8" />
    <circle
       style="fill:#ffffff;stroke:#000000;stroke-width:0.264583"
       id="path665-3"
       cx="36.653244"
       cy="80.000702"
       r="8" />
    <text
       xml:space="preserve"
       style="font-style:normal;font-weight:normal;font-size:7.88315px;line-height:1.25;font-family:sans-serif;fill:#000000;fill-opacity:1;stroke:none;stroke-width:0.246348"
       x="10.873275"
       y="103.55273"
       id="text5014"
       transform="scale(1.0303823,0.97051355)"><tspan
         sodipodi:role="line"
         id="tspan5012"
         style="font-size:7.88315px;stroke-width:0.246348"
         x="10.873275"
         y="103.55273">Open/Close</tspan></text>
    <text
       xml:space="preserve"
       style="font-style:normal;font-weight:normal;font-size:9.87778px;line-height:1.25;font-family:sans-serif;fill:#000000;fill-opacity:1;stroke:none;stroke-width:0.264583"
       x="19.371029"
       y="31.328341"
       id="text5014-9"><tspan
         sodipodi:role="line"
         id="tspan5012-1"
         style="font-size:9.87778px;stroke-width:0.264583"
         x="19.371029"
         y="31.328341">Adjust</tspan></text>
    <circle
       style="fill:#ffffff;stroke:#000000;stroke-width:0.264583"
       id="path1952"
       cx="227.46059"
       cy="130.82848"
       r="13" />
    <circle
       style="fill:#ffffff;stroke:#000000;stroke-width:0.264583"
       id="path1954"
       cx="212.2206"
       cy="115.58848"
       r="1.5" />
    <circle
       style="fill:#ffffff;stroke:#000000;stroke-width:0.264583"
       id="path1954-3"
       cx="242.70059"
       cy="115.58848"
       r="1.5" />
    <circle
       style="fill:#ffffff;stroke:#000000;stroke-width:0.264583"
       id="path1954-6"
       cx="242.70059"
       cy="146.06848"
       r="1.5" />
    <circle
       style="fill:#ffffff;stroke:#000000;stroke-width:0.264583"
       id="path1954-7"
       cx="212.2206"
       cy="146.06848"
       r="1.5" />
    <circle
       style="fill:#ffffff;stroke:#000000;stroke-width:0.264583"
       id="path1892"
       cx="160.25565"
       r="6"
       cy="127.71452" />
    <circle
       style="fill:#ffffff;stroke:#000000;stroke-width:0.264583"
       id="path1892-5"
       cx="97.006401"
       r="6"
       cy="128.15761" />
    <text
       xml:space="preserve"
       style="font-style:normal;font-weight:normal;font-size:9.87778px;line-height:1.25;font-family:sans-serif;fill:#000000;fill-opacity:1;stroke:none;stroke-width:0.264583"
       x="111.21777"
       y="140.80682"
       id="text15792"><tspan
         sodipodi:role="line"
         id="tspan15790"
         style="font-size:9.87778px;stroke-width:0.264583"
         x="111.21777"
         y="140.80682">Launch</tspan></text>
    <circle
       style="fill:#ffffff;stroke:#000000;stroke-width:0.264583"
       id="path1138"
       cx="36.672928"
       cy="51.968811"
       r="3.75" />
    <circle
       style="fill:#ffffff;stroke:#000000;stroke-width:0.264583"
       id="path1140"
       cx="28.872932"
       cy="51.968811"
       r="1.5" />
    <circle
       style="fill:#ffffff;stroke:#000000;stroke-width:0.264583"
       id="path665-6"
       cx="211.49268"
       cy="72.958206"
       r="8" />
    <circle
       style="fill:#ffffff;stroke:#000000;stroke-width:0.264583"
       id="path665-7"
       cx="211.58487"
       cy="45.598541"
       r="8" />
    <text
       xml:space="preserve"
       style="font-style:normal;font-weight:normal;font-size:9.87778px;line-height:1.25;font-family:sans-serif;fill:#000000;fill-opacity:1;stroke:none;stroke-width:0.264583"
       x="203.49547"
       y="29.132038"
       id="text17621"><tspan
         sodipodi:role="line"
         id="tspan17619"
         style="font-size:9.87778px;stroke-width:0.264583"
         x="203.49547"
         y="29.132038">Action 1</tspan></text>
    <text
       xml:space="preserve"
       style="font-style:normal;font-weight:normal;font-size:9.87778px;line-height:1.25;font-family:sans-serif;fill:#000000;fill-opacity:1;stroke:none;stroke-width:0.264583"
       x="202.9632"
       y="95.576347"
       id="text17621-6"><tspan
         sodipodi:role="line"
         id="tspan17619-2"
         style="font-size:9.87778px;stroke-width:0.264583"
         x="202.9632"
         y="95.576347">Action 2</tspan></text>
    <path
       style="fill:#f15a24;stroke-width:0.0492865"
       d="m 135.16981,17.35446 c -0.65954,8.15e-4 -1.194,0.514542 -1.194,1.148191 0,1.069751 -1.33588,1.973446 -2.91713,1.973446 -0.0136,0 -0.0272,-4.9e-5 -0.0407,-2.34e-4 -1.4081,-0.01386 -2.06557,-1.69456 -1.01184,-2.591639 1.42736,-1.215133 2.34375,-3.09903 2.34375,-5.214286 0,-3.6652538 -2.75128,-6.636531 -6.14514,-6.636531 -3.39386,0 -6.14513,2.9713254 -6.14513,6.63658 0,2.115207 0.91638,3.999104 2.34375,5.214286 1.05373,0.897079 0.39625,2.577825 -1.01184,2.59164 -0.0136,1.15e-4 -0.0271,2.33e-4 -0.0407,2.33e-4 -1.58126,0 -2.91714,-0.903695 -2.91714,-1.973446 0,-0.633601 -0.53446,-1.147368 -1.194,-1.148189 -0.67025,-8.15e-4 -1.20538,0.549944 -1.19687,1.193639 0.0154,1.158817 0.61794,2.27286 1.65851,3.062662 0.98694,0.749134 2.28299,1.161714 3.6494,1.161714 0.91231,0 1.79269,-0.184844 2.57127,-0.530044 -0.21732,0.238601 -0.54749,0.51396 -1.01923,0.792942 -0.9507,0.562117 -2.13248,0.925333 -3.01058,0.925333 -0.66312,0 -1.20014,0.518501 -1.19552,1.156401 0.005,0.63447 0.55905,1.14278 1.2197,1.139979 1.32421,-0.0057 2.90713,-0.478074 4.24004,-1.266187 0.0223,-0.01314 0.0439,-0.02656 0.0659,-0.03985 -0.22143,1.587285 -1.24721,2.518367 -2.84009,2.53044 -0.6614,0.005 -1.2281,0.515073 -1.22694,1.150269 0.002,0.633213 0.53602,1.14616 1.19556,1.14616 1.47303,0 2.80996,-0.518259 3.76451,-1.459242 0.46688,-0.460252 0.83175,-1.006817 1.08945,-1.624429 0.25771,0.617612 0.62258,1.164177 1.08944,1.624429 0.94798,0.934559 2.27315,1.452092 3.7342,1.459147 0.66085,0.0032 1.2182,-0.500004 1.22579,-1.134669 0.007,-0.64031 -0.53054,-1.161665 -1.19546,-1.161665 -1.61083,0 -2.64867,-0.932866 -2.87152,-2.530586 0.022,0.01323 0.0435,0.02667 0.0659,0.03984 1.33292,0.788114 2.91577,1.260488 4.24009,1.266187 0.66065,0.0029 1.21508,-0.50546 1.2197,-1.139978 0.005,-0.637899 -0.5324,-1.156353 -1.19551,-1.156353 -0.87811,0 -2.05989,-0.363217 -3.01058,-0.925332 -0.47174,-0.278935 -0.80186,-0.554245 -1.01923,-0.792944 0.77848,0.345249 1.65891,0.530045 2.57128,0.530045 1.36645,0 2.66249,-0.412579 3.64939,-1.161713 1.04061,-0.789804 1.64316,-1.903895 1.65851,-3.062662 0.008,-0.643551 -0.52677,-1.194413 -1.19697,-1.193593 z"
       id="path113892" />
    <path
       d="m 136.64581,17.76977 c -0.32267,-0.313467 -0.74896,-0.485994 -1.20054,-0.485994 -7.7e-4,0 -0.002,0 -0.003,0 -0.94082,0.0011 -1.70627,0.737204 -1.70627,1.640802 0,0.788837 -1.12345,1.480833 -2.40426,1.480833 l -0.0355,-1.17e-4 c -0.52043,-0.0051 -0.83442,-0.337328 -0.95467,-0.646496 -0.11965,-0.307721 -0.10958,-0.75411 0.27787,-1.083903 1.59921,-1.361483 2.51646,-3.396319 2.51646,-5.582866 4e-5,-3.9310482 -2.98679,-7.1291432 -6.65807,-7.1291432 -3.67128,0 -6.65812,3.198095 -6.65812,7.1291432 0,2.186499 0.91719,4.221383 2.51645,5.582866 0.3874,0.329793 0.39751,0.776182 0.27787,1.083903 -0.1203,0.309168 -0.43424,0.641425 -0.9551,0.646496 l -0.0351,1.17e-4 c -1.28071,0 -2.40425,-0.691946 -2.40425,-1.480833 0,-0.903549 -0.76541,-1.639643 -1.70628,-1.640852 -0.45319,0.0014 -0.87957,0.172047 -1.20281,0.485997 -0.32856,0.319119 -0.51353,0.758892 -0.5076,1.206536 0.0174,1.307196 0.69289,2.562031 1.85339,3.44288 1.02497,0.77797 2.35038,1.223345 3.7528,1.264641 -0.447,0.131424 -0.88078,0.206097 -1.24389,0.206097 -0.45857,0 -0.88913,0.172142 -1.21231,0.484644 -0.32308,0.3125 -0.4993,0.727205 -0.49614,1.167751 0.006,0.899928 0.7804,1.629259 1.72696,1.629164 0.003,0 0.006,0 0.008,0 1.07188,-0.0047 2.29959,-0.293568 3.44425,-0.795794 -0.39338,0.667847 -1.07183,1.028069 -1.98475,1.035024 -0.95874,0.0073 -1.73747,0.744642 -1.73586,1.643699 0.002,0.90326 0.76797,1.638099 1.70855,1.638099 1.61258,0 3.07998,-0.571102 4.13196,-1.608105 0.27177,-0.267919 0.51299,-0.563177 0.722,-0.883264 0.20901,0.320087 0.45023,0.615345 0.72201,0.883264 1.04403,1.029227 2.49975,1.600279 4.09906,1.608007 0.94757,0.0034 1.73053,-0.722811 1.74128,-1.621625 0.006,-0.442044 -0.16993,-0.85844 -0.49341,-1.172633 -0.32348,-0.314239 -0.75495,-0.487299 -1.21502,-0.487299 -0.9271,0 -1.61516,-0.360511 -2.01232,-1.035264 1.14486,0.50237 2.37246,0.7913 3.44451,0.795939 0.003,0 0.006,0 0.008,0 0.94646,0 1.72046,-0.729284 1.72695,-1.629164 0.003,-0.440545 -0.17301,-0.855299 -0.49613,-1.167799 -0.32314,-0.312502 -0.75369,-0.484644 -1.21231,-0.484644 -0.36312,0 -0.7969,-0.07467 -1.24389,-0.206097 1.40246,-0.04129 2.72782,-0.486671 3.7528,-1.264641 1.16051,-0.880849 1.83604,-2.135734 1.85339,-3.442928 0.006,-0.44755 -0.17915,-0.887321 -0.50771,-1.206441 z m -1.98183,3.876519 c -0.89672,0.680645 -2.07987,1.05555 -3.3314,1.05555 -0.82637,0 -1.64111,-0.167601 -2.35622,-0.484642 -0.21979,-0.09742 -0.4807,-0.03405 -0.62575,0.152145 -0.14503,0.186148 -0.13477,0.444409 0.0247,0.619497 0.28305,0.310811 0.66537,0.609546 1.13637,0.888045 1.02582,0.606553 2.31312,0.99846 3.27955,0.99846 0.18321,0 0.35526,0.06878 0.48438,0.193635 0.12909,0.124807 0.19944,0.290573 0.1982,0.466724 -0.003,0.360512 -0.31866,0.650264 -0.70441,0.650748 -1.23347,-0.0053 -2.71889,-0.451316 -3.97374,-1.193303 -0.0123,-0.0072 -0.0243,-0.01454 -0.0362,-0.02188 l -0.0255,-0.01545 c -0.16848,-0.101623 -0.38292,-0.100513 -0.55035,0.0029 -0.16732,0.103361 -0.2573,0.290332 -0.2309,0.479716 0.25836,1.852069 1.52191,2.957801 3.37998,2.957801 0.18378,0 0.35618,0.06917 0.48549,0.194749 0.12919,0.12553 0.1992,0.291972 0.19709,0.468703 -0.004,0.357904 -0.32087,0.647703 -0.70651,0.647703 -0.002,0 -0.003,0 -0.004,0 -1.32209,-0.0064 -2.51871,-0.471746 -3.36931,-1.310284 -0.41698,-0.411083 -0.74696,-0.903599 -0.98071,-1.463928 -0.078,-0.186872 -0.26651,-0.309361 -0.47617,-0.309361 -0.20968,0 -0.39817,0.122536 -0.47618,0.309361 -0.23376,0.560329 -0.56373,1.052845 -0.98071,1.463928 -0.85719,0.84501 -2.06362,1.310383 -3.39708,1.310383 -0.37578,0 -0.68197,-0.293569 -0.68262,-0.654467 -4.1e-4,-0.353076 0.32816,-0.65384 0.71808,-0.656835 1.8378,-0.01397 3.08802,-1.119598 3.34447,-2.957656 0.0264,-0.189433 -0.0636,-0.376354 -0.23089,-0.479716 -0.0845,-0.05221 -0.18095,-0.07835 -0.27752,-0.07835 -0.0947,0 -0.1894,0.02512 -0.27279,0.07539 l -0.0255,0.01545 c -0.0121,0.0073 -0.0239,0.01464 -0.0366,0.02207 -1.25456,0.741746 -2.73995,1.187749 -3.97339,1.193063 -0.38821,0.0024 -0.70188,-0.290236 -0.70445,-0.650749 -0.002,-0.176053 0.0691,-0.341771 0.19821,-0.466676 0.12915,-0.124903 0.30115,-0.193634 0.48437,-0.193634 0.96637,0 2.25368,-0.391907 3.27959,-0.998509 0.45309,-0.267872 0.82315,-0.554678 1.10268,-0.852786 0.0705,-0.05631 0.23471,-0.193635 0.42256,-0.39326 0.19,-0.201845 0.1736,-0.513332 -0.0365,-0.695763 -0.21017,-0.182477 -0.53452,-0.166731 -0.72447,0.03507 -0.12105,0.128623 -0.22994,0.223871 -0.28818,0.272364 -0.70072,0.300427 -1.49323,0.45943 -2.29702,0.45943 -1.25148,0 -2.43458,-0.374856 -3.3314,-1.05555 -0.91684,-0.69586 -1.4503,-1.673598 -1.46367,-2.682442 -0.003,-0.185763 0.0746,-0.368433 0.21133,-0.501307 0.12845,-0.12476 0.29572,-0.193442 0.47109,-0.193442 2.5e-4,0 7.7e-4,0 7.7e-4,0 0.37589,4.78e-4 0.68173,0.294534 0.68173,0.655577 0,0.67229 0.39479,1.324968 1.08315,1.790582 0.64389,0.435571 1.4774,0.675428 2.34692,0.675428 0.0156,0 0.0309,-4.8e-5 0.046,-2.33e-4 0.85659,-0.0084 1.60439,-0.513575 1.90525,-1.286907 0.30014,-0.771498 0.0809,-1.621725 -0.55836,-2.165972 -1.37973,-1.174609 -2.17104,-2.94075 -2.17104,-4.845562 -5e-5,-3.387963 2.52656,-6.1441122 5.63215,-6.1441122 3.10557,0 5.63219,2.7561492 5.63219,6.1438702 0,1.904812 -0.79131,3.670953 -2.17104,4.845564 -0.63927,0.544246 -0.85845,1.394472 -0.55835,2.165969 0.30085,0.773382 1.04866,1.278504 1.90479,1.286909 0.0155,1.17e-4 0.0309,2.34e-4 0.0464,2.34e-4 0.86962,0 1.70307,-0.239907 2.34692,-0.675429 0.6883,-0.465662 1.08315,-1.118292 1.08315,-1.790581 0,-0.360995 0.30583,-0.655095 0.68173,-0.655578 v 0 c 2.3e-4,0 4e-4,0 7.7e-4,0 0.17532,0 0.34265,0.06868 0.47109,0.193442 0.13676,0.132874 0.2138,0.315592 0.21134,0.501307 -0.0136,1.008941 -0.547,1.98668 -1.46383,2.682588 z"
       id="path113894"
       style="stroke-width:0.0492865" />
    <path
       d="m 125.16345,15.953805 c 0,-0.322257 -0.27299,-0.58443 -0.6086,-0.58443 -0.33555,0 -0.60854,0.262173 -0.60854,0.58443 0,0.322259 0.27299,0.58448 0.60854,0.58448 0.33561,0 0.6086,-0.262221 0.6086,-0.58448 z"
       id="path113896"
       style="stroke-width:0.0492865" />
    <path
       d="m 127.85461,15.369327 c -0.33554,0 -0.60859,0.262172 -0.60859,0.58443 0,0.322259 0.27299,0.58448 0.60859,0.58448 0.33556,0 0.60855,-0.262173 0.60855,-0.58448 0,-0.322258 -0.27299,-0.58443 -0.60855,-0.58443 z"
       id="path113898"
       style="stroke-width:0.0492865" />
  </g>
</svg>
